<?xml version="1.0" standalone="no"?>
<!DOCTYPE svg PUBLIC "-//W3C//DTD SVG 20010904//EN"
 "http://www.w3.org/TR/2001/REC-SVG-20010904/DTD/svg10.dtd">
<svg version="1.0" xmlns="http://www.w3.org/2000/svg"
 width="700.000000pt" height="700.000000pt" viewBox="0 0 700.000000 700.000000"
 preserveAspectRatio="xMidYMid meet">
<metadata>
Created by potrace 1.11, written by Peter Selinger 2001-2013
</metadata>
<g transform="translate(0.000000,700.000000) scale(0.100000,-0.100000)"
fill="#000000" stroke="none">
<path d="M863 6936 c-141 -35 -200 -139 -218 -379 -5 -79 -10 -94 -39 -135
-194 -271 -322 -934 -390 -2012 -34 -532 -41 -813 -41 -1685 0 -796 2 -891 18
-990 50 -311 146 -561 312 -810 283 -426 712 -716 1232 -832 l118 -27 865 -3
c965 -5 984 -4 1227 63 711 194 1247 771 1396 1500 l22 106 150 57 c337 130
533 257 764 497 482 498 661 1243 455 1897 -33 102 -430 1155 -488 1292 -139
331 -408 645 -724 849 -108 70 -320 170 -446 210 -231 74 -429 101 -671 93
-308 -11 -384 -32 -1159 -327 l-609 -232 -29 22 c-625 462 -1109 740 -1432
824 -121 32 -242 40 -313 22z m86 -801 c237 -157 580 -581 970 -1197 l112
-177 792 -3 c773 -4 795 -5 907 -26 659 -129 1146 -609 1292 -1272 23 -105 23
-107 23 -890 0 -777 0 -786 -23 -887 -159 -720 -715 -1219 -1441 -1292 -137
-14 -1464 -15 -1602 -1 -389 40 -708 186 -982 449 -247 237 -407 539 -470 886
-22 117 -22 138 -22 975 1 841 8 1162 41 1700 50 840 147 1446 275 1729 33 73
29 73 128 6z"/>
<path d="M2655 3410 c-286 -42 -506 -236 -576 -508 -17 -66 -19 -111 -19 -366
0 -331 6 -371 71 -503 49 -99 140 -202 231 -261 171 -111 407 -144 688 -97
435 74 726 322 829 706 145 539 -133 936 -719 1024 -100 16 -414 19 -505 5z"/>
</g>
</svg>
